# xmcd
#
# Track frame offsets:
#   150
#   16741
#   33923
#   52825
#   66067
#   83973
#   96274
#   116294
#   133263
#   151609
#   168226
#   181953
#   198385
#   211556
#   231297
#
# Disc length: 3392 seconds
#
# Revision: 0
# Processed by: cddbd v1.5.1PL0 Copyright (c) Steve Scherf et al.
# Submitted via: Media_Universe 3.0
#
DISCID=b20d3e0f
DTITLE=BROOKS and DUNN - Red Dirt Road
DYEAR=2004
DGENRE=Country
TTITLE0=You Can't Take The Honky Tonk Out Of The Girl
TTITLE1=Caroline
TTITLE2=When We Were Kings
TTITLE3=That's What She Gets For Loving Me
TTITLE4=Red Dirt Road
TTITLE5=Feels Good Don't It
TTITLE6=I Used To Know This Song By Heart
TTITLE7=Believer
TTITLE8=Memory Town
TTITLE9=She Was Born To Run
TTITLE10=Till My Dyin' Day
TTITLE11=My Baby's Everything I Love
TTITLE12=Good Day To Be Me
TTITLE13=Good Cowboy
TTITLE14=Holy War
EXTD=
EXTT0=
EXTT1=
EXTT2=
EXTT3=
EXTT4=
EXTT5=
EXTT6=
EXTT7=
EXTT8=
EXTT9=
EXTT10=
EXTT11=
EXTT12=
EXTT13=
EXTT14=
PLAYORDER=
